<svg width="70" height="70" viewBox="0 0 70 70" fill="none" xmlns="http://www.w3.org/2000/svg">
<circle cx="35" cy="35" r="35" fill="#654BFF"/>
<path d="M24.656 29.844V29.016H32.864V29.844H29.228V29.904C29.228 31.128 31.304 31.872 32.996 32.004V32.832C31.292 32.688 29.504 32.052 28.748 31.08C27.98 32.064 26.18 32.712 24.488 32.832V32.004C26.168 31.896 28.256 31.116 28.256 29.904V29.844H24.656ZM23.924 34.872V34.044H28.256V32.412H29.228V34.044H33.596V34.872H23.924ZM24.44 38.004C24.44 37.416 24.716 36.984 25.244 36.672C25.976 36.24 27.176 36.036 28.772 36.036C30.368 36.036 31.556 36.24 32.288 36.672C32.816 36.984 33.104 37.416 33.104 38.004C33.104 38.58 32.816 39.024 32.288 39.348C31.556 39.78 30.368 39.96 28.772 39.96C27.176 39.96 25.976 39.78 25.244 39.348C24.716 39.024 24.44 38.58 24.44 38.004ZM25.412 38.004C25.412 38.28 25.556 38.508 25.832 38.676C26.36 39 27.344 39.156 28.772 39.156C30.2 39.156 31.184 39 31.712 38.676C32 38.508 32.132 38.28 32.132 38.004C32.132 37.74 32 37.512 31.712 37.332C31.184 37.008 30.2 36.852 28.772 36.852C27.344 36.852 26.36 37.008 25.832 37.332C25.556 37.512 25.412 37.74 25.412 38.004ZM37.0395 32.856V34.968H44.6115V35.796H42.8115V38.316H45.0555V39.156H35.5035V38.316H37.8195V35.796H36.0795V32.028H43.5075V29.928H36.0795V29.088H44.4675V32.856H37.0395ZM41.8515 35.796H38.7675V38.316H41.8515V35.796Z" fill="white"/>
</svg>
