<svg width="31" height="30" viewBox="0 0 31 30" fill="none" xmlns="http://www.w3.org/2000/svg">
<path d="M15.4852 3.9229C16.0247 3.4513 16.5303 2.98605 17.0597 2.54877C18.2734 1.54454 19.5964 0.738624 21.1232 0.308969C24.6206 -0.676186 28.2238 0.884809 29.9543 4.139C30.7177 5.57542 31.0585 7.10718 30.9918 8.733C30.9151 10.5876 30.2762 12.2376 29.1356 13.6766C28.1194 14.9592 27.0592 16.2075 26.0154 17.4685C23.0637 21.0366 20.1145 24.6074 17.1553 28.1692C16.8585 28.5276 16.5227 28.8581 16.1744 29.1658C15.6851 29.5992 15.3167 29.5865 14.8098 29.1759C14.2213 28.698 13.7597 28.0993 13.2805 27.5183C10.9564 24.704 8.63232 21.8896 6.30695 19.0752C4.87199 17.3375 3.37918 15.6443 2.01841 13.8482C0.72305 12.1397 -0.124597 10.2012 0.0150009 7.98047C0.223768 4.63984 1.71155 2.08733 4.77767 0.653456C6.69053 -0.240176 8.67886 -0.155007 10.6471 0.532695C12.3159 1.11489 13.7019 2.14581 14.9545 3.37757C15.133 3.55426 15.3053 3.73858 15.4852 3.9229ZM15.5166 26.7645C15.5405 26.72 15.5506 26.6895 15.5707 26.6667C16.9063 25.0561 18.2419 23.4442 19.5788 21.8337C21.4112 19.6269 23.2461 17.4227 25.0734 15.2109C25.7198 14.4278 26.3776 13.6524 26.98 12.8351C28.2175 11.1559 28.6312 9.26689 28.1923 7.22158C27.8163 5.4661 26.8806 4.07926 25.3149 3.17927C24.3679 2.63521 23.3429 2.42928 22.2563 2.57546C21.4187 2.6886 20.6553 3.01402 19.9272 3.42969C18.4796 4.25722 17.2509 5.35551 16.1379 6.59363C15.9216 6.83388 15.7153 7.0843 15.4978 7.33726C15.4525 7.28387 15.4185 7.24065 15.3821 7.19997C14.8752 6.64702 14.391 6.07118 13.8578 5.54491C12.8014 4.50383 11.6368 3.60384 10.2698 3.00766C8.4399 2.21064 6.66915 2.35682 5.08453 3.56952C3.04716 5.12797 2.38942 7.28768 2.75539 9.7868C2.96038 11.1914 3.69862 12.3647 4.53746 13.4592C5.29707 14.4507 6.12082 15.3927 6.91691 16.3562C9.44979 19.4223 11.9827 22.487 14.5155 25.5518C14.84 25.9484 15.1657 26.34 15.5166 26.7645Z" fill="#C82622"/>
<path d="M15.5051 26.9998C15.529 26.9553 15.5403 26.9235 15.5605 26.9006C16.925 25.2545 18.2895 23.6083 19.6553 21.9634C21.5267 19.7084 23.4018 17.4558 25.2694 15.1982C25.9297 14.3987 26.6012 13.6055 27.2175 12.7716C28.4814 11.0568 28.904 9.12587 28.4563 7.03734C28.0714 5.24372 27.1169 3.82637 25.5159 2.90731C24.5488 2.35181 23.5012 2.1408 22.3919 2.2908C21.5367 2.40647 20.7558 2.73825 20.0125 3.16409C18.5335 4.00942 17.2784 5.13186 16.1415 6.39667C15.9201 6.64201 15.7101 6.89751 15.4875 7.15556C15.441 7.1009 15.407 7.05641 15.3693 7.01573C14.8524 6.45006 14.3569 5.86278 13.8111 5.32508C12.7308 4.26111 11.5423 3.34205 10.1451 2.73316C8.27498 1.91835 6.4665 2.06834 4.84792 3.30773C2.76653 4.89924 2.09495 7.10471 2.46721 9.65849C2.67724 11.0936 3.43056 12.2924 4.28827 13.411C5.06423 14.4241 5.90559 15.3864 6.71928 16.3703C9.3075 19.5024 11.8945 22.6333 14.4827 25.7655C14.8134 26.1659 15.1467 26.5663 15.5051 26.9998Z" fill="#C82622"/>
</svg>
