<svg width="31" height="29" viewBox="0 0 31 29" fill="none" xmlns="http://www.w3.org/2000/svg">
<path d="M15.4854 3.85795C16.025 3.39414 16.5306 2.93658 17.06 2.50653C18.2737 1.5189 19.5967 0.726296 21.1235 0.303741C24.6211 -0.665134 28.2243 0.870065 29.9548 4.07048C30.7182 5.48316 31.059 6.98961 30.9924 8.58856C30.9156 10.4125 30.2768 12.0353 29.1361 13.4504C28.1199 14.7119 27.0597 15.9395 26.0158 17.1797C23.0641 20.6889 20.1149 24.2006 17.1556 27.7035C16.8588 28.0561 16.523 28.3811 16.1746 28.6837C15.6854 29.11 15.3169 29.0975 14.8101 28.6937C14.2215 28.2236 13.7599 27.6348 13.2808 27.0635C10.9566 24.2956 8.63247 21.5277 6.30706 18.7599C4.87208 17.0509 3.37924 15.3857 2.01845 13.6192C0.723062 11.939 -0.124599 10.0325 0.0150011 7.84847C0.223772 4.56304 1.71158 2.05272 4.77775 0.642535C6.69065 -0.236329 8.679 -0.152568 10.6472 0.52377C12.3161 1.09634 13.7021 2.11022 14.9547 3.32163C15.1333 3.4954 15.3056 3.67668 15.4854 3.85795ZM15.5169 26.3221C15.5408 26.2784 15.5508 26.2484 15.571 26.2258C16.9066 24.6419 18.2422 23.0567 19.5791 21.4727C21.4115 19.3025 23.2465 17.1347 25.0738 14.9594C25.7203 14.1893 26.378 13.4267 26.9804 12.6228C28.218 10.9714 28.6317 9.11363 28.1928 7.10212C27.8168 5.37565 26.8811 4.01172 25.3153 3.12661C24.3683 2.59154 23.3433 2.38901 22.2567 2.53278C21.4191 2.64404 20.6557 2.96409 19.9275 3.37289C18.4799 4.18674 17.2512 5.26688 16.1382 6.48454C15.9219 6.72082 15.7156 6.9671 15.498 7.21589C15.4527 7.16338 15.4188 7.12087 15.3823 7.08087C14.8755 6.53705 14.3913 5.97072 13.858 5.45316C12.8016 4.42928 11.637 3.54416 10.2699 2.95783C8.44005 2.17398 6.66927 2.31775 5.08462 3.51041C3.04721 5.0431 2.38946 7.16713 2.75544 9.62495C2.96044 11.0064 3.69868 12.1603 4.53754 13.2367C5.29716 14.2118 6.12093 15.1382 6.91703 16.0858C9.44995 19.1012 11.9829 22.1153 14.5158 25.1295C14.8403 25.5195 15.166 25.9046 15.5169 26.3221Z" fill="#070505"/>
</svg>
