<svg width="70" height="70" viewBox="0 0 70 70" fill="none" xmlns="http://www.w3.org/2000/svg">
<circle cx="35" cy="35" r="35" fill="#FF3C3C"/>
<path d="M19.284 29.016H24.732V29.856H22.488V31.164C22.488 32.988 23.628 33.924 24.924 34.236V35.088C23.628 34.824 22.524 34.056 22.032 33.048C21.54 34.068 20.436 34.98 19.104 35.232V34.38C20.436 34.08 21.528 33.012 21.528 31.164V29.856H19.284V29.016ZM27.936 36.372H26.976V28.896H27.936V36.372ZM28.14 39.684H19.956V36.168H20.928V38.856H28.14V39.684ZM30.5275 30.48V29.7H32.4475V28.56H33.3955V29.7H35.2675V30.48H30.5275ZM31.6315 33.228C31.6315 33.6 31.7875 33.912 32.0275 34.128C32.2675 34.32 32.5675 34.44 32.9035 34.44C33.2395 34.44 33.5515 34.32 33.7795 34.128C34.0195 33.912 34.1755 33.6 34.1755 33.228C34.1755 32.856 34.0195 32.556 33.7795 32.328C33.5515 32.136 33.2395 32.028 32.9035 32.028C32.5675 32.028 32.2675 32.136 32.0275 32.328C31.7875 32.556 31.6315 32.856 31.6315 33.228ZM30.7315 33.228C30.7315 32.592 31.0075 32.052 31.4635 31.704C31.8355 31.404 32.3395 31.26 32.9035 31.26C33.4675 31.26 33.9715 31.404 34.3435 31.704C34.7995 32.052 35.0755 32.592 35.0755 33.228C35.0755 33.876 34.7995 34.416 34.3435 34.764C33.9715 35.052 33.4675 35.208 32.9035 35.208C32.3395 35.208 31.8355 35.052 31.4635 34.764C31.0075 34.416 30.7315 33.876 30.7315 33.228ZM39.6235 35.424H38.6875V32.472H37.1035V35.232H36.1915V28.956H37.1035V31.632H38.6875V28.896H39.6235V35.424ZM31.2835 37.944C31.2835 37.356 31.5955 36.912 32.1355 36.612C32.8915 36.156 34.1155 35.976 35.5435 35.976C36.9835 35.976 38.2075 36.156 38.9635 36.612C39.4915 36.912 39.8035 37.356 39.8035 37.944C39.8035 38.544 39.4915 38.988 38.9635 39.288C38.2075 39.732 36.9835 39.9 35.5435 39.9C34.1155 39.9 32.8915 39.732 32.1355 39.288C31.5955 38.988 31.2835 38.544 31.2835 37.944ZM32.2435 37.944C32.2435 38.232 32.4115 38.448 32.7115 38.628C33.2635 38.94 34.2835 39.084 35.5435 39.084C36.8155 39.084 37.8355 38.94 38.3755 38.628C38.6875 38.448 38.8315 38.232 38.8315 37.944C38.8315 37.68 38.6875 37.44 38.3755 37.26C37.8355 36.96 36.8155 36.804 35.5435 36.804C34.2835 36.804 33.2635 36.96 32.7115 37.26C32.4115 37.44 32.2435 37.68 32.2435 37.944ZM42.6951 29.844V29.016H50.9031V29.844H47.2671V29.904C47.2671 31.128 49.3431 31.872 51.0351 32.004V32.832C49.3311 32.688 47.5431 32.052 46.7871 31.08C46.0191 32.064 44.2191 32.712 42.5271 32.832V32.004C44.2071 31.896 46.2951 31.116 46.2951 29.904V29.844H42.6951ZM41.9631 34.752V33.912H51.6351V34.752H47.2671V36.036C48.6351 36.084 49.6671 36.288 50.3271 36.672C50.8551 36.984 51.1431 37.416 51.1431 38.004C51.1431 38.58 50.8551 39.024 50.3271 39.348C49.5951 39.78 48.4071 39.96 46.8111 39.96C45.2151 39.96 44.0151 39.78 43.2831 39.348C42.7551 39.024 42.4791 38.58 42.4791 38.004C42.4791 37.416 42.7551 36.984 43.2831 36.672C43.9311 36.288 44.9631 36.084 46.3071 36.048V34.752H41.9631ZM43.4511 38.004C43.4511 38.28 43.5951 38.508 43.8711 38.676C44.3991 39 45.3831 39.156 46.8111 39.156C48.2391 39.156 49.2231 39 49.7511 38.676C50.0391 38.508 50.1711 38.28 50.1711 38.004C50.1711 37.74 50.0391 37.512 49.7511 37.332C49.2231 37.008 48.2391 36.852 46.8111 36.852C45.3831 36.852 44.3991 37.008 43.8711 37.332C43.5951 37.512 43.4511 37.74 43.4511 38.004Z" fill="white"/>
</svg>
