<svg width="12" height="18" viewBox="0 0 12 18" fill="none" xmlns="http://www.w3.org/2000/svg">
<path d="M11.0003 5.66666C11.0003 2.90833 8.75866 0.666664 6.00033 0.666664C3.24199 0.666664 1.00033 2.90833 1.00033 5.66666C1.00033 9.41666 6.00033 14.8333 6.00033 14.8333C6.00033 14.8333 11.0003 9.41666 11.0003 5.66666ZM4.33366 5.66666C4.33366 4.75 5.08366 4 6.00033 4C6.91699 4 7.66699 4.75 7.66699 5.66666C7.66699 6.58333 6.92533 7.33333 6.00033 7.33333C5.08366 7.33333 4.33366 6.58333 4.33366 5.66666ZM0.166992 15.6667V17.3333H11.8337V15.6667H0.166992Z" fill="#666666"/>
</svg>
