<svg width="70" height="70" viewBox="0 0 70 70" fill="none" xmlns="http://www.w3.org/2000/svg">
<circle cx="35" cy="35" r="35" fill="#654BFF"/>
<path d="M13.6009 31.356C13.6009 30.504 13.9489 29.856 14.5009 29.412C14.9809 29.028 15.6409 28.824 16.3849 28.824C17.1289 28.824 17.7889 29.028 18.2689 29.412C18.8209 29.856 19.1689 30.504 19.1689 31.356C19.1689 32.196 18.8209 32.856 18.2689 33.3C17.7889 33.684 17.1289 33.888 16.3849 33.888C15.6409 33.888 14.9809 33.684 14.5009 33.3C13.9489 32.856 13.6009 32.196 13.6009 31.356ZM14.5369 31.356C14.5369 31.908 14.7409 32.34 15.0889 32.64C15.4129 32.928 15.8569 33.072 16.3849 33.072C16.9009 33.072 17.3569 32.928 17.6809 32.64C18.0169 32.34 18.2209 31.908 18.2209 31.356C18.2209 30.804 18.0169 30.372 17.6809 30.072C17.3569 29.796 16.9009 29.64 16.3849 29.64C15.8569 29.64 15.4129 29.796 15.0889 30.072C14.7409 30.372 14.5369 30.804 14.5369 31.356ZM22.3969 34.02H21.4369V28.896H22.3969V34.02ZM15.3889 37.716V38.976H22.5409V39.756H14.4169V36.924H21.4369V35.676H14.4169V34.884H22.3969V37.716H15.3889ZM26.0685 31.176H29.3205V29.016H30.2685V35.004H25.1205V29.016H26.0685V31.176ZM29.3205 34.176V32.004H26.0685V34.176H29.3205ZM33.6165 28.896V31.956H35.2605V32.808H33.6165V36.444H32.6565V28.896H33.6165ZM26.7045 36.312V38.856H33.8205V39.684H25.7445V36.312H26.7045ZM37.744 32.976H39.82V29.088H40.756V38.88H36.82V29.088H37.744V32.976ZM39.82 38.064V33.804H37.744V38.064H39.82ZM45.556 39.636H44.62V34.164H43.048V39.516H42.112V28.956H43.048V33.324H44.62V28.896H45.556V39.636ZM52.7555 30.84C52.0115 31.86 50.2595 32.628 48.2435 32.856V32.016C50.2355 31.74 52.2755 30.84 52.2755 29.316V28.956H53.2475V29.316C53.2475 30.84 55.2155 31.74 57.2915 32.016V32.856C55.2155 32.616 53.4995 31.848 52.7555 30.84ZM47.9435 34.872V34.044H52.2755V32.412H53.2475V34.044H57.6155V34.872H47.9435ZM48.4595 38.004C48.4595 37.416 48.7355 36.984 49.2635 36.672C49.9955 36.24 51.1955 36.036 52.7915 36.036C54.3875 36.036 55.5755 36.24 56.3075 36.672C56.8355 36.984 57.1235 37.416 57.1235 38.004C57.1235 38.58 56.8355 39.024 56.3075 39.348C55.5755 39.78 54.3875 39.96 52.7915 39.96C51.1955 39.96 49.9955 39.78 49.2635 39.348C48.7355 39.024 48.4595 38.58 48.4595 38.004ZM49.4315 38.004C49.4315 38.28 49.5755 38.508 49.8515 38.676C50.3795 39 51.3635 39.156 52.7915 39.156C54.2195 39.156 55.2035 39 55.7315 38.676C56.0195 38.508 56.1515 38.28 56.1515 38.004C56.1515 37.74 56.0195 37.512 55.7315 37.332C55.2035 37.008 54.2195 36.852 52.7915 36.852C51.3635 36.852 50.3795 37.008 49.8515 37.332C49.5755 37.512 49.4315 37.74 49.4315 38.004Z" fill="white"/>
</svg>
