<svg width="70" height="70" viewBox="0 0 70 70" fill="none" xmlns="http://www.w3.org/2000/svg">
<circle cx="35" cy="35" r="35" fill="#FF3C3C"/>
<path d="M17.4729 33.212H12.6009V28.016H17.7489V28.868H13.5609V32.372H17.7009C18.7689 32.372 19.5849 32.204 20.1369 31.796V27.896H21.0969V30.392H22.7409V31.244H21.0969V34.004H20.1369V32.588C19.5969 33.032 18.7089 33.212 17.4729 33.212ZM13.0809 36.68C13.0809 36.056 13.3809 35.564 13.8849 35.216C14.6289 34.688 15.8169 34.436 17.2329 34.436C18.6489 34.436 19.8369 34.688 20.5689 35.216C21.0729 35.564 21.3729 36.056 21.3729 36.68C21.3729 37.304 21.0729 37.796 20.5689 38.156C19.8369 38.672 18.6489 38.9 17.2329 38.9C15.8169 38.9 14.6289 38.672 13.8849 38.156C13.3809 37.796 13.0809 37.304 13.0809 36.68ZM14.0529 36.68C14.0529 37.016 14.2329 37.316 14.5689 37.544C15.0849 37.904 16.0209 38.072 17.2329 38.072C18.4329 38.072 19.3689 37.904 19.9089 37.544C20.2329 37.316 20.4009 37.016 20.4009 36.68C20.4009 36.332 20.2329 36.032 19.9089 35.816C19.3689 35.456 18.4329 35.276 17.2329 35.276C16.0209 35.276 15.0849 35.456 14.5689 35.816C14.2329 36.032 14.0529 36.332 14.0529 36.68ZM24.1205 30.356C24.1205 29.504 24.4685 28.856 25.0205 28.412C25.5005 28.028 26.1605 27.824 26.9045 27.824C27.6485 27.824 28.3085 28.028 28.7885 28.412C29.3405 28.856 29.6885 29.504 29.6885 30.356C29.6885 31.196 29.3405 31.856 28.7885 32.3C28.3085 32.684 27.6485 32.888 26.9045 32.888C26.1605 32.888 25.5005 32.684 25.0205 32.3C24.4685 31.856 24.1205 31.196 24.1205 30.356ZM25.0565 30.356C25.0565 30.908 25.2605 31.34 25.6085 31.64C25.9325 31.928 26.3765 32.072 26.9045 32.072C27.4205 32.072 27.8765 31.928 28.2005 31.64C28.5365 31.34 28.7405 30.908 28.7405 30.356C28.7405 29.804 28.5365 29.372 28.2005 29.072C27.8765 28.796 27.4205 28.64 26.9045 28.64C26.3765 28.64 25.9325 28.796 25.6085 29.072C25.2605 29.372 25.0565 29.804 25.0565 30.356ZM32.9165 33.02H31.9565V27.896H32.9165V33.02ZM25.9085 36.716V37.976H33.0605V38.756H24.9365V35.924H31.9565V34.676H24.9365V33.884H32.9165V36.716H25.9085ZM36.744 31.976H38.82V28.088H39.756V37.88H35.82V28.088H36.744V31.976ZM38.82 37.064V32.804H36.744V37.064H38.82ZM44.556 38.636H43.62V33.164H42.048V38.516H41.112V27.956H42.048V32.324H43.62V27.896H44.556V38.636ZM51.7555 29.84C51.0115 30.86 49.2595 31.628 47.2435 31.856V31.016C49.2355 30.74 51.2755 29.84 51.2755 28.316V27.956H52.2475V28.316C52.2475 29.84 54.2155 30.74 56.2915 31.016V31.856C54.2155 31.616 52.4995 30.848 51.7555 29.84ZM46.9435 33.872V33.044H51.2755V31.412H52.2475V33.044H56.6155V33.872H46.9435ZM47.4595 37.004C47.4595 36.416 47.7355 35.984 48.2635 35.672C48.9955 35.24 50.1955 35.036 51.7915 35.036C53.3875 35.036 54.5755 35.24 55.3075 35.672C55.8355 35.984 56.1235 36.416 56.1235 37.004C56.1235 37.58 55.8355 38.024 55.3075 38.348C54.5755 38.78 53.3875 38.96 51.7915 38.96C50.1955 38.96 48.9955 38.78 48.2635 38.348C47.7355 38.024 47.4595 37.58 47.4595 37.004ZM48.4315 37.004C48.4315 37.28 48.5755 37.508 48.8515 37.676C49.3795 38 50.3635 38.156 51.7915 38.156C53.2195 38.156 54.2035 38 54.7315 37.676C55.0195 37.508 55.1515 37.28 55.1515 37.004C55.1515 36.74 55.0195 36.512 54.7315 36.332C54.2035 36.008 53.2195 35.852 51.7915 35.852C50.3635 35.852 49.3795 36.008 48.8515 36.332C48.5755 36.512 48.4315 36.74 48.4315 37.004Z" fill="white"/>
</svg>
