<svg width="242" height="69" viewBox="0 0 242 69" fill="none" xmlns="http://www.w3.org/2000/svg">
<g style="mix-blend-mode:screen">
<path d="M68.9758 34.5C68.9758 53.5538 53.5351 69 34.4879 69C15.4408 69 0 53.5538 0 34.5C0 15.4462 15.4408 0 34.4879 0C53.5351 0 68.9758 15.4462 68.9758 34.5Z" fill="#FF7070"/>
<path d="M112.232 34.5C112.232 53.5538 96.7911 69 77.744 69C58.6968 69 43.256 53.5538 43.256 34.5C43.256 15.4462 58.6968 0 77.744 0C96.7911 0 112.232 15.4462 112.232 34.5Z" fill="#FF7070"/>
<path d="M155.488 34.5C155.488 53.5538 140.047 69 121 69C101.953 69 86.5121 53.5538 86.5121 34.5C86.5121 15.4462 101.953 0 121 0C140.047 0 155.488 15.4462 155.488 34.5Z" fill="#FF7070"/>
<path d="M198.744 34.5C198.744 53.5538 183.303 69 164.256 69C145.209 69 129.768 53.5538 129.768 34.5C129.768 15.4462 145.209 0 164.256 0C183.303 0 198.744 15.4462 198.744 34.5Z" fill="#FF7070"/>
<path d="M242 34.5C242 53.5538 226.559 69 207.512 69C188.465 69 173.024 53.5538 173.024 34.5C173.024 15.4462 188.465 0 207.512 0C226.559 0 242 15.4462 242 34.5Z" fill="#FF7070"/>
</g>
</svg>
